# xmcd
#
# Track frame offsets: 
#        150
#        25668
#        39059
#        56188
#        59316
#        78765
#        101177
#        114339
#        132920
#        152153
#        176834
#        198475
#        211928
#
# Disc length: 2939 seconds
#
# Revision: 0
# Processed by: cddbd v1.5.2PL0 Copyright (c) Steve Scherf et al.
# Submitted via: ExactAudioCopy v0.99pb4
#
DISCID=aa0b790d
DTITLE=Howard Leese - Secret Weapon
DYEAR=2009
DGENRE=Blues
TTITLE0=Alive Again
TTITLE1=Heal The Broken Hearted
TTITLE2=Hot To Cold
TTITLE3=French Quarter
TTITLE4=33 West Street
TTITLE5=The South Summit
TTITLE6=Rada's Theme
TTITLE7=The Vine
TTITLE8=In These Eyes
TTITLE9=Vermilion Border
TTITLE10=I've Been Leavin' You
TTITLE11=Somewhere
TTITLE12=--
EXTD=
EXTT0=
EXTT1=
EXTT2=
EXTT3=
EXTT4=
EXTT5=
EXTT6=
EXTT7=
EXTT8=
EXTT9=
EXTT10=
EXTT11=
EXTT12=
PLAYORDER=
